<svg width="1298" height="1117" viewBox="0 0 1298 1117" fill="none" xmlns="http://www.w3.org/2000/svg">
<path d="M46 1347.5C198.018 1246 293.277 1195.39 359.5 1040C396.921 964.99 425.743 930.284 488 878.5C595.451 787.535 653.467 733.827 803 694C900.028 665.277 966.073 618.352 1062.5 452.5L1177.5 201L1297 -5" stroke="#F24E1E"/>
<path d="M-284 798.83C-119.989 718.132 -18.9183 680.447 67.102 535.077C114.032 465.619 147.155 434.991 215.663 391.814C334.11 315.718 398.665 270.079 552.129 250.196C652.085 234.439 723.71 196.576 841.045 44.7949L988.02 -189.461L1133.49 -378.02" stroke="#F24E1E"/>
<path d="M34.1577 1328.24C186.652 1227.46 282.148 1177.3 349.103 1022.22C386.876 947.391 415.861 912.821 478.362 861.331C586.24 770.873 644.508 717.44 794.227 678.317C891.39 650.051 957.655 603.438 1054.86 438.042L1171.05 187.087L1291.51 -18.3483" stroke="#F24E1E"/>
<path d="M22.5046 1309.27C175.464 1209.19 271.192 1159.48 338.864 1004.71C376.985 930.052 406.129 895.617 468.868 844.417C577.165 754.46 635.68 701.297 785.578 662.869C882.871 635.054 949.351 588.748 1047.32 423.805L1164.67 173.39L1286.09 -31.4842" stroke="#F24E1E"/>
<path d="M11.0408 1290.57C164.455 1191.19 260.409 1141.91 328.786 987.457C367.246 912.974 396.548 878.672 459.519 827.759C568.225 738.297 626.981 685.401 777.054 647.657C874.472 620.286 941.163 574.284 1039.89 409.789L1158.37 159.912L1280.73 -44.4068" stroke="#F24E1E"/>
<path d="M-0.233632 1272.15C153.625 1173.46 249.799 1124.62 318.868 970.468C357.662 896.158 387.117 861.988 450.316 811.358C559.421 722.384 618.415 669.752 768.655 632.681C866.195 605.747 933.092 560.045 1032.55 395.994L1152.16 146.651L1275.43 -57.1166" stroke="#F24E1E"/>
<path d="M-11.3185 1254.02C142.974 1156.01 239.362 1107.58 309.11 953.742C348.231 879.605 377.837 845.565 441.258 795.214C550.755 706.722 609.98 654.351 760.383 617.943C858.04 591.439 925.137 546.032 1025.32 382.422L1146.02 133.608L1270.19 -69.6139" stroke="#F24E1E"/>
<path d="M-22.2137 1236.16C132.502 1138.82 229.099 1090.82 299.513 937.283C338.956 863.316 368.708 829.404 432.347 779.328C542.227 691.312 601.678 639.198 752.237 603.442C850.008 577.362 917.302 532.246 1018.19 369.071L1139.97 120.784L1265.02 -81.8986" stroke="#F24E1E"/>
<path d="M-32.9193 1218.6C122.21 1121.92 219.01 1074.33 290.078 921.089C329.835 847.291 359.731 813.506 423.583 763.702C533.837 676.154 593.509 624.294 744.219 589.18C842.101 563.516 909.586 518.688 1011.17 355.944L1134.01 108.177L1259.92 -93.9708" stroke="#F24E1E"/>
<path d="M-43.4351 1201.32C112.097 1105.29 209.096 1058.1 280.804 905.163C320.869 831.532 350.907 797.873 414.967 748.336C525.585 661.25 585.475 609.64 736.33 575.157C834.318 549.903 901.99 505.357 1004.26 343.04L1128.13 95.7891L1254.88 -105.83" stroke="#F24E1E"/>
<path d="M-53.761 1184.33C102.164 1088.94 199.356 1042.15 271.692 889.505C312.059 816.039 342.235 782.504 406.498 733.23C517.474 646.6 577.574 595.236 728.57 561.373C826.661 536.522 894.516 492.255 997.447 330.359L1122.33 83.6192L1249.91 -117.478" stroke="#F24E1E"/>
<path d="M-63.8971 1167.62C92.4117 1072.86 189.791 1026.47 262.742 874.116C303.406 800.813 333.717 767.4 398.178 718.387C509.502 632.204 569.809 581.084 720.94 547.83C819.131 523.375 887.163 479.381 990.747 317.902L1116.63 71.6678L1245.02 -128.913" stroke="#F24E1E"/>
<path d="M-73.8433 1151.21C82.8393 1057.07 180.402 1011.06 253.955 858.998C294.909 785.857 325.352 752.564 390.006 703.806C501.67 618.065 562.18 567.183 713.441 534.528C811.728 510.461 879.934 466.737 984.156 305.669L1111.01 59.9357L1240.19 -140.135" stroke="#F24E1E"/>
<path d="M-83.5996 1135.09C73.4474 1041.55 171.188 995.923 245.331 844.15C286.568 771.169 317.14 737.994 381.984 689.487C493.98 604.181 554.686 553.534 706.073 521.467C804.453 497.782 872.828 454.323 977.675 293.661L1105.48 48.422L1235.44 -151.146" stroke="#F24E1E"/>
<path d="M-93.1659 1119.26C64.2361 1026.32 162.15 981.064 236.87 829.575C278.385 756.751 309.083 723.693 374.111 675.434C486.431 590.554 547.33 540.139 698.838 508.648C797.307 485.338 865.847 442.14 971.305 281.879L1100.05 37.1278L1230.76 -161.944" stroke="#F24E1E"/>
<path d="M-102.542 1103.72C55.2055 1011.37 153.287 966.481 228.573 815.272C270.359 742.603 301.18 709.66 366.388 661.644C479.024 577.184 540.111 526.997 691.735 496.072C790.29 473.13 858.991 430.188 965.046 270.321L1094.7 26.0523L1226.16 -172.53" stroke="#F24E1E"/>
<path d="M-111.729 1088.48C46.3558 996.709 144.601 952.176 220.439 801.243C262.491 728.728 293.432 695.898 358.815 648.12C471.759 564.073 533.029 514.11 684.766 483.739C783.404 461.158 852.262 418.468 958.901 258.989L1089.45 15.1967L1221.63 -182.903" stroke="#F24E1E"/>
<path d="M-120.725 1073.53C37.6871 982.33 136.091 938.149 212.47 787.489C254.781 715.125 285.84 682.406 351.393 634.863C464.638 551.221 526.086 501.477 677.931 471.651C776.649 449.423 845.66 406.979 952.869 247.884L1084.29 4.5607L1217.18 -193.064" stroke="#F24E1E"/>
<path d="M-129.532 1058.88C29.1995 968.238 127.758 924.402 204.664 774.011C247.229 701.795 278.402 669.185 344.122 621.873C457.66 538.628 519.282 489.1 671.23 459.806C770.026 437.925 839.185 395.724 946.952 237.006L1079.22 -5.85558L1212.81 -203.013" stroke="#F24E1E"/>
<path d="M-138.148 1044.53C20.8931 954.432 119.601 910.935 197.023 760.808C239.836 688.739 271.121 656.237 337.002 609.15C450.825 526.295 512.617 476.98 664.665 448.207C763.535 426.665 832.838 384.701 941.149 226.354L1074.25 -16.052L1208.51 -212.75" stroke="#F24E1E"/>
<path d="M-146.575 1030.48C12.768 940.914 111.622 897.749 189.547 747.883C232.601 675.958 263.995 643.561 330.035 596.695C444.135 514.223 506.092 465.115 658.235 436.853C757.178 415.643 826.621 373.912 935.463 215.929L1069.38 -26.0283L1204.3 -222.275" stroke="#F24E1E"/>
<path d="M-154.812 1016.73C4.82432 927.686 103.819 884.845 182.236 735.236C225.526 663.453 257.026 631.158 323.219 584.51C437.589 502.413 499.707 453.508 651.942 425.746C750.954 404.86 820.534 363.357 929.893 205.733L1064.6 -35.7843L1200.17 -231.587" stroke="#F24E1E"/>
<path d="M-162.858 1003.28C-2.93787 914.747 96.1939 872.224 175.09 722.867C218.61 651.223 250.213 619.03 316.555 572.594C431.188 490.864 493.462 442.159 645.786 414.885C744.864 394.316 814.577 353.037 924.441 195.764L1059.93 -45.3199L1196.12 -240.687" stroke="#F24E1E"/>
<path d="M-170.715 990.128C-10.5185 902.1 88.746 859.887 168.109 710.778C211.853 639.271 243.557 607.176 310.044 560.948C424.932 479.578 487.359 431.068 639.767 404.271C738.909 384.013 808.751 342.952 919.107 186.024L1055.35 -54.6348L1192.15 -249.574" stroke="#F24E1E"/>
<path d="M-178.383 977.283C-17.9175 889.745 81.4755 847.835 161.294 698.969C205.256 627.596 237.058 595.599 303.686 549.574C418.823 468.555 481.397 420.236 633.887 393.905C733.09 373.95 803.057 333.103 913.892 176.512L1050.87 -63.7285L1188.26 -258.249" stroke="#F24E1E"/>
<path d="M-185.86 964.741C-25.1347 877.681 74.3827 836.069 154.645 687.441C198.819 616.199 230.717 584.297 297.482 538.471C412.859 457.796 475.577 409.663 628.145 383.787C727.407 364.128 797.495 323.489 908.797 167.23L1046.49 -72.6017L1184.46 -266.712" stroke="#F24E1E"/>
<path d="M-193.148 952.504C-32.1703 865.912 67.4677 824.589 148.161 676.195C192.543 605.082 224.533 573.273 291.43 527.641C407.041 447.301 469.899 399.351 622.541 373.918C721.86 354.547 792.066 314.113 903.821 158.177L1042.21 -81.2532L1180.75 -274.962" stroke="#F24E1E"/>
<path d="M-200.246 940.573C-39.024 854.437 60.7305 813.396 141.844 665.231C186.426 594.244 218.506 562.525 285.533 517.083C401.371 437.07 464.364 389.299 617.077 364.297C716.451 345.208 786.771 304.973 898.967 149.354L1038.03 -89.6839L1177.12 -283" stroke="#F24E1E"/>
<path d="M-207.155 928.949C-45.6958 843.257 54.1714 802.491 135.693 654.551C180.47 583.686 212.638 552.056 279.789 506.799C395.847 427.106 458.972 379.508 611.753 354.927C711.179 336.112 781.61 296.07 894.234 140.761L1033.95 -97.8926L1173.57 -290.824" stroke="#F24E1E"/>
<path d="M-213.874 917.632C-52.1857 832.374 47.7904 791.875 129.708 644.154C174.675 573.409 206.927 541.866 274.2 496.788C390.471 417.407 453.723 369.978 606.57 345.807C706.045 327.258 776.583 287.405 889.624 132.399L1029.98 -105.88L1170.12 -298.436" stroke="#F24E1E"/>
<path d="M-220.403 906.623C-58.4937 821.786 41.5875 781.548 123.889 634.04C169.041 563.414 201.375 531.954 268.765 487.052C385.242 407.973 448.618 360.71 601.527 336.937C701.051 318.648 771.692 278.978 885.136 124.267L1026.12 -113.645L1166.75 -305.836" stroke="#F24E1E"/>
<path d="M-226.743 895.923C-64.6197 811.496 35.563 771.512 118.238 624.213C163.568 553.7 195.981 522.322 263.484 477.591C380.162 398.808 443.656 351.704 596.625 328.319C696.195 310.281 766.936 270.79 880.771 116.366L1022.35 -121.188L1163.47 -313.023" stroke="#F24E1E"/>
<path d="M-232.894 885.534C-70.5637 801.505 29.7168 761.766 112.753 614.67C158.256 544.27 190.746 512.971 258.359 468.406C375.229 389.909 438.839 342.962 591.865 319.951C691.479 302.158 762.317 262.841 876.53 108.697L1018.69 -128.509L1160.29 -319.997" stroke="#F24E1E"/>
<path d="M-238.855 875.455C-76.3257 791.812 24.0491 752.312 107.435 605.414C153.105 535.122 185.67 503.901 253.389 459.497C370.445 381.278 434.167 334.482 587.247 311.836C686.903 294.28 757.834 255.132 872.414 101.26L1015.14 -135.608L1157.19 -326.758" stroke="#F24E1E"/>
<path d="M-244.627 865.687C-81.9056 782.419 18.5599 743.15 102.284 596.445C148.116 526.258 180.753 495.112 248.573 450.864C365.81 372.915 429.639 326.266 582.771 303.973C682.467 286.646 753.489 247.662 868.422 94.0542L1011.7 -142.484L1154.18 -333.307" stroke="#F24E1E"/>
<path d="M-250.211 856.231C-87.3034 773.326 13.2494 734.282 97.3 587.764C143.289 517.679 175.995 486.606 243.914 442.509C361.324 364.821 425.257 318.315 578.438 296.363C678.172 279.259 749.28 240.433 864.556 87.0814L1008.36 -149.137L1151.27 -339.641" stroke="#F24E1E"/>
<path d="M-255.604 847.088C-92.5191 764.534 8.11752 725.706 92.4835 579.369C138.623 509.384 171.396 478.381 239.41 434.431C356.987 356.996 421.02 310.628 574.248 289.006C674.019 272.116 745.21 233.443 860.816 80.3406L1005.12 -155.567L1148.45 -345.764" stroke="#F24E1E"/>
<path d="M-260.809 838.258C-97.5527 756.043 3.16438 717.424 87.8343 571.263C134.119 501.374 166.956 470.44 235.061 426.63C352.799 349.441 416.928 303.205 570.201 281.902C670.007 265.219 741.279 226.695 857.203 73.8327L1002 -161.775L1145.72 -351.673" stroke="#F24E1E"/>
<path d="M-265.825 829.743C-102.404 747.855 -1.60996 709.438 83.3526 563.447C129.777 493.65 162.676 462.782 230.869 419.109C348.761 342.155 412.983 296.048 566.298 275.052C666.137 258.57 737.486 220.188 853.716 67.5583L998.985 -167.759L1143.08 -357.369" stroke="#F24E1E"/>
<path d="M-270.652 821.541C-107.074 739.969 -6.20546 701.746 79.0384 555.919C125.598 486.212 158.556 455.407 226.833 411.866C344.873 335.14 409.184 289.157 562.539 268.456C662.41 252.166 733.832 213.922 850.356 61.5166L996.079 -173.52L1140.54 -362.852" stroke="#F24E1E"/>
<path d="M-275.29 813.655C-111.561 732.386 -10.622 694.35 74.8919 548.681C121.58 479.061 154.596 448.317 222.953 404.902C341.135 328.395 405.531 282.531 558.924 262.114C658.825 246.01 730.318 207.898 847.125 55.709L993.283 -179.057L1138.1 -368.121" stroke="#F24E1E"/>
<path d="M-279.739 806.084C-115.866 725.106 -14.8597 687.25 70.913 541.734C117.725 472.196 150.795 441.511 219.23 398.218C337.547 321.921 402.025 276.172 555.454 256.028C655.383 240.1 726.944 202.116 844.021 50.1347L990.596 -184.371L1135.75 -373.177" stroke="#F24E1E"/>
</svg>
