<svg width="2064" height="739" viewBox="0 0 2064 739" fill="none" xmlns="http://www.w3.org/2000/svg">
<g filter="url(#filter0_b_90_19)">
<path d="M0.4 297L124 17H202L326 297H243.6L146.8 55.8H178L81.2 297H0.4ZM68 242.6L88.4 184.2H225.2L245.6 242.6H68ZM458.053 76.6C474.853 76.6 490.053 80.0667 503.653 87C517.253 93.6667 527.92 104.067 535.653 118.2C543.653 132.333 547.653 150.6 547.653 173V297H471.653V185.4C471.653 169.933 468.453 158.733 462.053 151.8C455.92 144.6 447.253 141 436.053 141C428.053 141 420.72 142.867 414.053 146.6C407.386 150.067 402.186 155.533 398.453 163C394.72 170.467 392.853 180.2 392.853 192.2V297H316.853V80.2H389.253V141.8L375.253 123.8C383.52 108.067 394.853 96.3333 409.253 88.6C423.653 80.6 439.92 76.6 458.053 76.6ZM708.569 76.6C725.369 76.6 740.569 80.0667 754.169 87C767.769 93.6667 778.435 104.067 786.169 118.2C794.169 132.333 798.169 150.6 798.169 173V297H722.169V185.4C722.169 169.933 718.969 158.733 712.569 151.8C706.435 144.6 697.769 141 686.569 141C678.569 141 671.235 142.867 664.569 146.6C657.902 150.067 652.702 155.533 648.969 163C645.235 170.467 643.369 180.2 643.369 192.2V297H567.369V80.2H639.769V141.8L625.769 123.8C634.035 108.067 645.369 96.3333 659.769 88.6C674.169 80.6 690.435 76.6 708.569 76.6ZM950.284 297V256.6L945.084 246.6V172.2C945.084 160.2 941.351 151 933.884 144.6C926.684 137.933 915.084 134.6 899.084 134.6C888.684 134.6 878.151 136.333 867.484 139.8C856.818 143 847.751 147.533 840.284 153.4L814.684 101.8C826.951 93.8 841.618 87.6667 858.684 83.4C876.018 78.8667 893.218 76.6 910.284 76.6C945.484 76.6 972.684 84.7333 991.884 101C1011.35 117 1021.08 142.2 1021.08 176.6V297H950.284ZM886.284 300.6C868.951 300.6 854.284 297.667 842.284 291.8C830.284 285.933 821.084 277.933 814.684 267.8C808.551 257.667 805.484 246.333 805.484 233.8C805.484 220.467 808.818 209 815.484 199.4C822.418 189.533 832.951 182.067 847.084 177C861.218 171.667 879.484 169 901.884 169H953.084V208.6H912.284C900.018 208.6 891.351 210.6 886.284 214.6C881.484 218.6 879.084 223.933 879.084 230.6C879.084 237.267 881.618 242.6 886.684 246.6C891.751 250.6 898.684 252.6 907.484 252.6C915.751 252.6 923.218 250.6 929.884 246.6C936.818 242.333 941.884 235.933 945.084 227.4L955.484 255.4C951.484 270.333 943.618 281.667 931.884 289.4C920.418 296.867 905.218 300.6 886.284 300.6ZM1177.46 300.6C1157.99 300.6 1141.72 296.6 1128.66 288.6C1115.86 280.6 1106.26 268.333 1099.86 251.8C1093.46 235.267 1090.26 214.067 1090.26 188.2C1090.26 162.867 1093.59 141.933 1100.26 125.4C1107.19 108.867 1117.19 96.6 1130.26 88.6C1143.32 80.6 1159.06 76.6 1177.46 76.6C1197.19 76.6 1215.06 81.1333 1231.06 90.2C1247.32 99.2667 1260.12 112.2 1269.46 129C1279.06 145.533 1283.86 165.267 1283.86 188.2C1283.86 211.4 1279.06 231.4 1269.46 248.2C1260.12 264.733 1247.32 277.667 1231.06 287C1215.06 296.067 1197.19 300.6 1177.46 300.6ZM1041.06 297V0.199983H1117.06V116.6L1113.06 188.2L1113.46 259.8V297H1041.06ZM1161.46 240.2C1169.99 240.2 1177.59 238.2 1184.26 234.2C1191.19 230.2 1196.66 224.333 1200.66 216.6C1204.92 208.6 1207.06 199.133 1207.06 188.2C1207.06 177.267 1204.92 168.067 1200.66 160.6C1196.66 152.867 1191.19 147 1184.26 143C1177.59 139 1169.99 137 1161.46 137C1152.92 137 1145.19 139 1138.26 143C1131.59 147 1126.12 152.867 1121.86 160.6C1117.86 168.067 1115.86 177.267 1115.86 188.2C1115.86 199.133 1117.86 208.6 1121.86 216.6C1126.12 224.333 1131.59 230.2 1138.26 234.2C1145.19 238.2 1152.92 240.2 1161.46 240.2ZM1404.78 300.6C1379.18 300.6 1356.78 295.8 1337.58 286.2C1318.65 276.333 1303.85 263 1293.18 246.2C1282.78 229.133 1277.58 209.8 1277.58 188.2C1277.58 166.6 1282.65 147.4 1292.78 130.6C1303.18 113.533 1317.45 100.333 1335.58 91C1353.71 81.4 1374.11 76.6 1396.78 76.6C1418.11 76.6 1437.58 81 1455.18 89.8C1472.78 98.3333 1486.78 111 1497.18 127.8C1507.58 144.6 1512.78 165 1512.78 189C1512.78 191.667 1512.65 194.733 1512.38 198.2C1512.11 201.667 1511.85 204.867 1511.58 207.8H1339.98V167.8H1471.18L1442.38 179C1442.65 169.133 1440.78 160.6 1436.78 153.4C1433.05 146.2 1427.71 140.6 1420.78 136.6C1414.11 132.6 1406.25 130.6 1397.18 130.6C1388.11 130.6 1380.11 132.6 1373.18 136.6C1366.51 140.6 1361.31 146.333 1357.58 153.8C1353.85 161 1351.98 169.533 1351.98 179.4V191C1351.98 201.667 1354.11 210.867 1358.38 218.6C1362.91 226.333 1369.31 232.333 1377.58 236.6C1385.85 240.6 1395.71 242.6 1407.18 242.6C1417.85 242.6 1426.91 241.133 1434.38 238.2C1442.11 235 1449.71 230.2 1457.18 223.8L1497.18 265.4C1486.78 276.867 1473.98 285.667 1458.78 291.8C1443.58 297.667 1425.58 300.6 1404.78 300.6ZM1519.82 297V0.199983H1595.82V297H1519.82ZM1617.21 297V0.199983H1693.21V297H1617.21ZM1847 297V256.6L1841.8 246.6V172.2C1841.8 160.2 1838.07 151 1830.6 144.6C1823.4 137.933 1811.8 134.6 1795.8 134.6C1785.4 134.6 1774.87 136.333 1764.2 139.8C1753.54 143 1744.47 147.533 1737 153.4L1711.4 101.8C1723.67 93.8 1738.34 87.6667 1755.4 83.4C1772.74 78.8667 1789.94 76.6 1807 76.6C1842.2 76.6 1869.4 84.7333 1888.6 101C1908.07 117 1917.8 142.2 1917.8 176.6V297H1847ZM1783 300.6C1765.67 300.6 1751 297.667 1739 291.8C1727 285.933 1717.8 277.933 1711.4 267.8C1705.27 257.667 1702.2 246.333 1702.2 233.8C1702.2 220.467 1705.54 209 1712.2 199.4C1719.14 189.533 1729.67 182.067 1743.8 177C1757.94 171.667 1776.2 169 1798.6 169H1849.8V208.6H1809C1796.74 208.6 1788.07 210.6 1783 214.6C1778.2 218.6 1775.8 223.933 1775.8 230.6C1775.8 237.267 1778.34 242.6 1783.4 246.6C1788.47 250.6 1795.4 252.6 1804.2 252.6C1812.47 252.6 1819.94 250.6 1826.6 246.6C1833.54 242.333 1838.6 235.933 1841.8 227.4L1852.2 255.4C1848.2 270.333 1840.34 281.667 1828.6 289.4C1817.14 296.867 1801.94 300.6 1783 300.6Z" fill="#F24E1E"/>
<path d="M34 657V377H162C187.6 377 209.6 381.133 228 389.4C246.667 397.667 261.067 409.667 271.2 425.4C281.333 440.867 286.4 459.267 286.4 480.6C286.4 501.667 281.333 519.933 271.2 535.4C261.067 550.867 246.667 562.867 228 571.4C209.6 579.667 187.6 583.8 162 583.8H78L113.2 549.4V657H34ZM113.2 557.8L78 521.4H157.2C173.733 521.4 186 517.8 194 510.6C202.267 503.4 206.4 493.4 206.4 480.6C206.4 467.533 202.267 457.4 194 450.2C186 443 173.733 439.4 157.2 439.4H78L113.2 403V557.8ZM388.522 660.6C370.922 660.6 355.055 657.133 340.922 650.2C327.055 643.267 316.122 632.467 308.122 617.8C300.389 602.867 296.522 584.067 296.522 561.4V440.2H372.522V549C372.522 565.8 375.589 577.8 381.722 585C388.122 592.2 397.055 595.8 408.522 595.8C415.989 595.8 422.789 594.067 428.922 590.6C435.055 587.133 439.989 581.667 443.722 574.2C447.455 566.467 449.322 556.6 449.322 544.6V440.2H525.322V657H452.922V595.8L466.922 613C459.455 629 448.655 641 434.522 649C420.389 656.733 405.055 660.6 388.522 660.6ZM643.075 660.6C615.342 660.6 593.742 653.8 578.275 640.2C562.808 626.333 555.075 605.533 555.075 577.8V391.8H631.075V577C631.075 584.733 633.208 590.867 637.475 595.4C641.742 599.667 647.208 601.8 653.875 601.8C662.942 601.8 670.675 599.533 677.075 595L695.875 648.2C689.475 652.467 681.608 655.533 672.275 657.4C662.942 659.533 653.208 660.6 643.075 660.6ZM523.475 505V448.2H680.675V505H523.475ZM697.181 657V440.2H769.581V503.4L758.781 485.4C765.181 469.133 775.581 457 789.981 449C804.381 440.733 821.848 436.6 842.381 436.6V505C838.915 504.467 835.848 504.2 833.181 504.2C830.781 503.933 828.115 503.8 825.181 503.8C809.715 503.8 797.181 508.067 787.581 516.6C777.981 524.867 773.181 538.467 773.181 557.4V657H697.181ZM845.744 657V440.2H921.744V657H845.744ZM883.744 416.2C869.877 416.2 858.677 412.333 850.144 404.6C841.61 396.867 837.344 387.267 837.344 375.8C837.344 364.333 841.61 354.733 850.144 347C858.677 339.267 869.877 335.4 883.744 335.4C897.61 335.4 908.81 339.133 917.344 346.6C925.877 353.8 930.144 363.133 930.144 374.6C930.144 386.6 925.877 396.6 917.344 404.6C909.077 412.333 897.877 416.2 883.744 416.2ZM1035.14 657V377H1167.54C1198.47 377 1225.67 382.733 1249.14 394.2C1272.61 405.667 1290.87 421.8 1303.94 442.6C1317.27 463.4 1323.94 488.2 1323.94 517C1323.94 545.533 1317.27 570.333 1303.94 591.4C1290.87 612.2 1272.61 628.333 1249.14 639.8C1225.67 651.267 1198.47 657 1167.54 657H1035.14ZM1114.34 593.8H1164.34C1180.34 593.8 1194.21 590.867 1205.94 585C1217.94 578.867 1227.27 570.067 1233.94 558.6C1240.61 546.867 1243.94 533 1243.94 517C1243.94 500.733 1240.61 486.867 1233.94 475.4C1227.27 463.933 1217.94 455.267 1205.94 449.4C1194.21 443.267 1180.34 440.2 1164.34 440.2H1114.34V593.8ZM1334.01 657V440.2H1410.01V657H1334.01ZM1372.01 416.2C1358.14 416.2 1346.94 412.333 1338.41 404.6C1329.88 396.867 1325.61 387.267 1325.61 375.8C1325.61 364.333 1329.88 354.733 1338.41 347C1346.94 339.267 1358.14 335.4 1372.01 335.4C1385.88 335.4 1397.08 339.133 1405.61 346.6C1414.14 353.8 1418.41 363.133 1418.41 374.6C1418.41 386.6 1414.14 396.6 1405.61 404.6C1397.34 412.333 1386.14 416.2 1372.01 416.2ZM1431.4 657V440.2H1503.8V503.4L1493 485.4C1499.4 469.133 1509.8 457 1524.2 449C1538.6 440.733 1556.07 436.6 1576.6 436.6V505C1573.13 504.467 1570.07 504.2 1567.4 504.2C1565 503.933 1562.33 503.8 1559.4 503.8C1543.93 503.8 1531.4 508.067 1521.8 516.6C1512.2 524.867 1507.4 538.467 1507.4 557.4V657H1431.4ZM1684.01 738.2C1663.21 738.2 1643.34 735.8 1624.41 731C1605.74 726.2 1589.74 719.133 1576.41 709.8L1604.01 656.6C1613.08 663.8 1624.28 669.4 1637.61 673.4C1651.21 677.667 1664.41 679.8 1677.21 679.8C1697.74 679.8 1712.54 675.267 1721.61 666.2C1730.68 657.4 1735.21 644.467 1735.21 627.4V601.8L1739.21 541L1738.81 479.8V440.2H1811.21V617.4C1811.21 658.467 1800.14 688.867 1778.01 708.6C1755.88 728.333 1724.54 738.2 1684.01 738.2ZM1670.81 645.8C1651.61 645.8 1633.88 641.533 1617.61 633C1601.61 624.2 1588.68 612.067 1578.81 596.6C1569.21 580.867 1564.41 562.333 1564.41 541C1564.41 519.667 1569.21 501.267 1578.81 485.8C1588.68 470.067 1601.61 457.933 1617.61 449.4C1633.88 440.867 1651.61 436.6 1670.81 436.6C1689.21 436.6 1704.94 440.333 1718.01 447.8C1731.08 455 1740.94 466.333 1747.61 481.8C1754.54 497.267 1758.01 517 1758.01 541C1758.01 565 1754.54 584.733 1747.61 600.2C1740.94 615.667 1731.08 627.133 1718.01 634.6C1704.94 642.067 1689.21 645.8 1670.81 645.8ZM1688.81 585.4C1697.88 585.4 1705.88 583.533 1712.81 579.8C1720.01 576.067 1725.61 570.867 1729.61 564.2C1733.88 557.533 1736.01 549.8 1736.01 541C1736.01 532.2 1733.88 524.467 1729.61 517.8C1725.61 511.133 1720.01 506.067 1712.81 502.6C1705.88 498.867 1697.88 497 1688.81 497C1679.74 497 1671.61 498.867 1664.41 502.6C1657.21 506.067 1651.48 511.133 1647.21 517.8C1643.21 524.467 1641.21 532.2 1641.21 541C1641.21 549.8 1643.21 557.533 1647.21 564.2C1651.48 570.867 1657.21 576.067 1664.41 579.8C1671.61 583.533 1679.74 585.4 1688.81 585.4ZM1940.84 660.6C1917.11 660.6 1896.04 655.8 1877.64 646.2C1859.24 636.6 1844.71 623.4 1834.04 606.6C1823.64 589.533 1818.44 570.067 1818.44 548.2C1818.44 526.333 1823.64 507 1834.04 490.2C1844.71 473.4 1859.24 460.333 1877.64 451C1896.04 441.4 1917.11 436.6 1940.84 436.6C1964.57 436.6 1985.64 441.4 2004.04 451C2022.71 460.333 2037.24 473.4 2047.64 490.2C2058.04 507 2063.24 526.333 2063.24 548.2C2063.24 570.067 2058.04 589.533 2047.64 606.6C2037.24 623.4 2022.71 636.6 2004.04 646.2C1985.64 655.8 1964.57 660.6 1940.84 660.6ZM1940.84 600.2C1949.64 600.2 1957.37 598.2 1964.04 594.2C1970.97 590.2 1976.44 584.333 1980.44 576.6C1984.44 568.6 1986.44 559.133 1986.44 548.2C1986.44 537.267 1984.44 528.067 1980.44 520.6C1976.44 512.867 1970.97 507 1964.04 503C1957.37 499 1949.64 497 1940.84 497C1932.31 497 1924.57 499 1917.64 503C1910.97 507 1905.51 512.867 1901.24 520.6C1897.24 528.067 1895.24 537.267 1895.24 548.2C1895.24 559.133 1897.24 568.6 1901.24 576.6C1905.51 584.333 1910.97 590.2 1917.64 594.2C1924.57 598.2 1932.31 600.2 1940.84 600.2Z" fill="white"/>
</g>
<defs>
<filter id="filter0_b_90_19" x="-3.6001" y="-3.80005" width="2070.84" height="746" filterUnits="userSpaceOnUse" color-interpolation-filters="sRGB">
<feFlood flood-opacity="0" result="BackgroundImageFix"/>
<feGaussianBlur in="BackgroundImageFix" stdDeviation="2"/>
<feComposite in2="SourceAlpha" operator="in" result="effect1_backgroundBlur_90_19"/>
<feBlend mode="normal" in="SourceGraphic" in2="effect1_backgroundBlur_90_19" result="shape"/>
</filter>
</defs>
</svg>
