<svg width="1585" height="617" viewBox="0 0 1585 617" fill="none" xmlns="http://www.w3.org/2000/svg">
<path d="M252.734 254H148.047V243.453H175.781L146.484 168.453H68.75L40.625 243.453H62.5C64.0625 243.453 65.4948 243.583 66.7969 243.844C70.1823 244.365 71.875 247.75 71.875 254H0V243.453H25L110.547 19.625H139.453L231.641 243.453H243.359C244.922 243.453 246.354 243.583 247.656 243.844C251.042 244.365 252.734 247.75 252.734 254ZM141.797 156.734L107.031 66.8906L73.4375 156.734H141.797ZM314.578 243.844C316.141 243.844 317.573 243.974 318.875 244.234C322.26 244.755 323.953 248.01 323.953 254H232.547V243.844C234.63 243.844 236.583 243.714 238.406 243.453C249.604 242.151 255.203 235.51 255.203 223.531V96.1875H232.547V86.0312H302.078L304.031 116.5C306.375 111.812 309.5 107.255 313.406 102.828C326.688 87.724 342.833 80.1719 361.844 80.1719C368.615 80.1719 375.125 81.2135 381.375 83.2969C404.292 91.3698 415.75 111.552 415.75 143.844V243.844H428.641C430.203 243.844 431.766 243.974 433.328 244.234C436.714 244.755 438.406 248.01 438.406 254H348.172V243.844C351.818 243.844 354.943 243.453 357.547 242.672C363.276 240.849 366.141 234.469 366.141 223.531V137.203C366.141 133.557 365.88 130.042 365.359 126.656C362.755 109.208 354.031 100.484 339.188 100.484C335.281 100.484 331.505 101.396 327.859 103.219C314.578 109.729 307.026 123.271 305.203 143.844L304.812 243.844H314.578ZM506.109 243.844C507.672 243.844 509.104 243.974 510.406 244.234C513.792 244.755 515.484 248.01 515.484 254H424.078V243.844C426.161 243.844 428.115 243.714 429.938 243.453C441.135 242.151 446.734 235.51 446.734 223.531V96.1875H424.078V86.0312H493.609L495.562 116.5C497.906 111.812 501.031 107.255 504.938 102.828C518.219 87.724 534.365 80.1719 553.375 80.1719C560.146 80.1719 566.656 81.2135 572.906 83.2969C595.823 91.3698 607.281 111.552 607.281 143.844V243.844H620.172C621.734 243.844 623.297 243.974 624.859 244.234C628.245 244.755 629.938 248.01 629.938 254H539.703V243.844C543.349 243.844 546.474 243.453 549.078 242.672C554.807 240.849 557.672 234.469 557.672 223.531V137.203C557.672 133.557 557.411 130.042 556.891 126.656C554.286 109.208 545.562 100.484 530.719 100.484C526.812 100.484 523.036 101.396 519.391 103.219C506.109 109.729 498.557 123.271 496.734 143.844L496.344 243.844H506.109ZM759.359 257.906C738.526 256.604 725.375 244.755 719.906 222.359C718.604 226.005 716.911 229.521 714.828 232.906C704.411 249.573 688.135 257.906 666 257.906C658.708 257.906 652.068 256.995 646.078 255.172C625.766 248.661 615.609 233.818 615.609 210.641C615.87 176.526 649.464 158.818 716.391 157.516V132.125C716.391 124.573 715.87 118.062 714.828 112.594C712.224 97.75 704.802 90.3281 692.562 90.3281C688.917 90.3281 685.661 90.9792 682.797 92.2812C678.37 94.8854 674.724 101.396 671.859 111.812C670.818 115.458 670.036 118.062 669.516 119.625C665.609 130.562 658.057 136.031 646.859 136.031C644.255 136.031 641.781 135.641 639.438 134.859C629.802 132.255 624.984 125.875 624.984 115.719C624.984 111.292 626.156 107.125 628.5 103.219C637.615 87.8542 659.88 80.1719 695.297 80.1719C704.411 80.1719 712.875 81.0833 720.688 82.9062C750.896 90.4583 766 110.51 766 143.062V224.703C766 237.203 768.865 243.714 774.594 244.234C782.146 243.974 786.703 234.859 788.266 216.891L798.422 217.281C797.641 225.354 796.469 231.995 794.906 237.203C790.219 251.005 778.37 257.906 759.359 257.906ZM686.312 241.109C688.135 241.109 690.219 240.719 692.562 239.938C703.5 235.771 711.443 224.573 716.391 206.344V168.453C704.672 168.974 695.036 170.406 687.484 172.75C673.422 177.958 666.391 189.156 666.391 206.344C666.651 229 673.292 240.589 686.312 241.109ZM896.984 257.906C873.547 257.646 854.927 247.229 841.125 226.656L838 254H778.234V243.453C781.62 243.453 784.745 243.193 787.609 242.672C796.203 240.849 800.5 234.339 800.5 223.141V10.6406H778.234V0.09375H850.109V120.016C863.651 93.7135 883.833 80.4323 910.656 80.1719C923.938 80.1719 936.047 83.9479 946.984 91.5C968.078 106.344 978.625 130.693 978.625 164.547C978.625 190.589 971.854 212.073 958.312 229C942.948 248.271 922.505 257.906 896.984 257.906ZM891.516 98.9219C884.745 98.9219 878.495 101.135 872.766 105.562C857.661 117.802 850.109 141.76 850.109 177.438C850.109 191.24 851.542 203.349 854.406 213.766C860.396 236.161 871.854 247.359 888.781 247.359C912.74 247.099 924.849 221.318 925.109 170.016C925.109 123.141 913.911 99.4427 891.516 98.9219ZM1060.78 90.3281C1039.95 91.1094 1028.62 113.115 1026.8 156.344L1051.8 157.516C1062.21 158.036 1070.03 157.385 1075.23 155.562C1082.53 152.698 1086.17 145.146 1086.17 132.906C1085.91 105.042 1077.45 90.849 1060.78 90.3281ZM1133.83 213.766C1132.27 217.932 1130.18 221.969 1127.58 225.875C1114.3 247.229 1092.42 257.906 1061.95 257.906C1044.77 257.906 1029.4 254.391 1015.86 247.359C987.474 232.516 973.281 206.214 973.281 168.453C973.281 145.276 979.531 125.875 992.031 110.25C1008.44 90.1979 1031.35 80.1719 1060.78 80.1719C1076.93 80.1719 1091.38 82.9062 1104.14 88.375C1126.8 98.5312 1138.12 114.677 1138.12 136.812C1138.12 141.24 1137.34 145.276 1135.78 148.922C1129.01 163.505 1104.66 170.146 1062.73 168.844L1026.8 167.672C1027.06 182.776 1028.36 195.797 1030.7 206.734C1036.69 233.297 1050.1 246.578 1070.94 246.578C1077.45 246.578 1083.83 245.406 1090.08 243.062C1105.7 237.333 1117.16 226.526 1124.45 210.641L1133.83 213.766ZM1224.97 243.844C1226.53 243.844 1227.96 243.974 1229.27 244.234C1232.65 244.755 1234.34 248.01 1234.34 254H1125.36V243.844C1132.65 243.844 1138.51 243.323 1142.94 242.281C1151.53 239.938 1155.83 233.427 1155.83 222.75V10.25H1125.36V0.09375H1205.44V243.844H1224.97ZM1318.84 243.844C1320.41 243.844 1321.84 243.974 1323.14 244.234C1326.53 244.755 1328.22 248.01 1328.22 254H1219.23V243.844C1226.53 243.844 1232.39 243.323 1236.81 242.281C1245.41 239.938 1249.7 233.427 1249.7 222.75V10.25H1219.23V0.09375H1299.31V243.844H1318.84ZM1458.81 257.906C1437.98 256.604 1424.83 244.755 1419.36 222.359C1418.06 226.005 1416.36 229.521 1414.28 232.906C1403.86 249.573 1387.59 257.906 1365.45 257.906C1358.16 257.906 1351.52 256.995 1345.53 255.172C1325.22 248.661 1315.06 233.818 1315.06 210.641C1315.32 176.526 1348.92 158.818 1415.84 157.516V132.125C1415.84 124.573 1415.32 118.062 1414.28 112.594C1411.68 97.75 1404.26 90.3281 1392.02 90.3281C1388.37 90.3281 1385.11 90.9792 1382.25 92.2812C1377.82 94.8854 1374.18 101.396 1371.31 111.812C1370.27 115.458 1369.49 118.062 1368.97 119.625C1365.06 130.562 1357.51 136.031 1346.31 136.031C1343.71 136.031 1341.23 135.641 1338.89 134.859C1329.26 132.255 1324.44 125.875 1324.44 115.719C1324.44 111.292 1325.61 107.125 1327.95 103.219C1337.07 87.8542 1359.33 80.1719 1394.75 80.1719C1403.86 80.1719 1412.33 81.0833 1420.14 82.9062C1450.35 90.4583 1465.45 110.51 1465.45 143.062V224.703C1465.45 237.203 1468.32 243.714 1474.05 244.234C1481.6 243.974 1486.16 234.859 1487.72 216.891L1497.88 217.281C1497.09 225.354 1495.92 231.995 1494.36 237.203C1489.67 251.005 1477.82 257.906 1458.81 257.906ZM1385.77 241.109C1387.59 241.109 1389.67 240.719 1392.02 239.938C1402.95 235.771 1410.9 224.573 1415.84 206.344V168.453C1404.12 168.974 1394.49 170.406 1386.94 172.75C1372.88 177.958 1365.84 189.156 1365.84 206.344C1366.1 229 1372.74 240.589 1385.77 241.109ZM116.016 316.172H93.75V425.156H114.453C142.318 424.896 156.51 406.797 157.031 370.859C156.771 334.922 143.099 316.693 116.016 316.172ZM132.812 540H7.8125V529.453H39.0625V316.172H7.8125V305.625H138.281C155.469 305.625 170.312 308.62 182.812 314.609C204.688 325.286 215.625 342.865 215.625 367.344C215.625 377.24 213.932 386.224 210.547 394.297C199.089 422.682 170.833 436.875 125.781 436.875H93.75V529.453H122.266C127.734 529.974 131.25 533.49 132.812 540ZM393.875 529.844C395.698 529.844 397.26 529.974 398.562 530.234C401.688 531.016 403.25 534.271 403.25 540H333.719L331.766 507.969C330.984 509.531 330.203 511.094 329.422 512.656C317.182 533.49 299.344 543.906 275.906 543.906C239.188 543.646 220.568 522.422 220.047 480.234V382.188H197.391V372.031H269.656V486.875C269.656 490.521 269.917 494.036 270.438 497.422C273.042 514.87 281.766 523.594 296.609 523.594C300.516 523.594 304.422 522.682 308.328 520.859C321.349 514.349 328.771 500.938 330.594 480.625L330.984 382.188H311.844V372.031H380.594V529.844H393.875ZM388.922 384.141V373.984H415.875V336.875L465.484 328.672V373.984H517.047V384.141H465.484V502.5C465.484 505.885 465.745 509.141 466.266 512.266C468.349 525.807 474.208 532.578 483.844 532.578C485.406 532.578 486.969 532.448 488.531 532.188C498.688 530.104 506.37 518.516 511.578 497.422L522.125 498.984C520.042 509.661 517.177 518.255 513.531 524.766C505.979 537.786 492.177 544.297 472.125 544.297C469 544.297 465.875 544.167 462.75 543.906C431.5 540.26 415.875 519.557 415.875 481.797V384.141H388.922ZM605.062 529.844C606.625 529.844 608.057 529.974 609.359 530.234C612.745 530.755 614.438 534.01 614.438 540H503.891V529.844C507.276 529.844 510.271 529.583 512.875 529.062C521.99 527.5 526.547 520.99 526.547 509.531V382.188H503.891V372.031H572.25L574.984 408.359C577.849 401.068 582.016 394.297 587.484 388.047C599.724 375.286 613.917 368.906 630.062 368.906C633.448 368.906 636.703 369.297 639.828 370.078C652.589 373.464 658.969 381.667 658.969 394.688C658.969 398.333 658.188 401.849 656.625 405.234C652.198 415.13 644.776 420.078 634.359 420.078C631.234 420.078 628.37 419.688 625.766 418.906C620.297 416.823 615.219 411.615 610.531 403.281C607.146 397.292 604.021 394.297 601.156 394.297C599.594 394.297 597.901 394.688 596.078 395.469C584.62 401.458 577.979 418.125 576.156 445.469V529.844H605.062ZM729.406 529.844C730.969 529.844 732.401 529.974 733.703 530.234C737.089 530.755 738.781 534.01 738.781 540H642.688V529.844C646.073 529.844 649.068 529.583 651.672 529.062C660.786 527.5 665.344 520.99 665.344 509.531V382.188H642.688V372.031H714.953V529.844H729.406ZM718.469 320.859C718.469 325.807 717.167 330.495 714.562 334.922C709.094 344.557 700.63 349.375 689.172 349.375C684.484 349.375 679.927 348.203 675.5 345.859C665.344 340.651 660.266 332.318 660.266 320.859C660.266 315.911 661.438 311.224 663.781 306.797C669.51 296.641 677.974 291.562 689.172 291.562C694.12 291.562 698.807 292.865 703.234 295.469C713.391 300.938 718.469 309.401 718.469 320.859ZM774.578 305.625H889.812C918.719 305.625 943.979 312.526 965.594 326.328C998.406 347.682 1014.81 380.104 1014.81 423.594C1014.81 457.708 1003.35 485.573 980.438 507.188C957 529.062 927.182 540 890.984 540H774.578V529.453H805.828V316.172H774.578V305.625ZM890.984 316.172H860.516V529.453H890.203C902.443 529.453 912.729 526.979 921.062 522.031C942.677 509.271 953.484 475.807 953.484 421.641C953.484 394.557 950.88 372.812 945.672 356.406C936.557 329.583 918.328 316.172 890.984 316.172ZM1096.97 529.844C1098.53 529.844 1099.96 529.974 1101.27 530.234C1104.65 530.755 1106.34 534.01 1106.34 540H1010.25V529.844C1013.64 529.844 1016.63 529.583 1019.23 529.062C1028.35 527.5 1032.91 520.99 1032.91 509.531V382.188H1010.25V372.031H1082.52V529.844H1096.97ZM1086.03 320.859C1086.03 325.807 1084.73 330.495 1082.12 334.922C1076.66 344.557 1068.19 349.375 1056.73 349.375C1052.05 349.375 1047.49 348.203 1043.06 345.859C1032.91 340.651 1027.83 332.318 1027.83 320.859C1027.83 315.911 1029 311.224 1031.34 306.797C1037.07 296.641 1045.54 291.562 1056.73 291.562C1061.68 291.562 1066.37 292.865 1070.8 295.469C1080.95 300.938 1086.03 309.401 1086.03 320.859ZM1195.14 529.844C1196.7 529.844 1198.14 529.974 1199.44 530.234C1202.82 530.755 1204.52 534.01 1204.52 540H1093.97V529.844C1097.35 529.844 1100.35 529.583 1102.95 529.062C1112.07 527.5 1116.62 520.99 1116.62 509.531V382.188H1093.97V372.031H1162.33L1165.06 408.359C1167.93 401.068 1172.09 394.297 1177.56 388.047C1189.8 375.286 1203.99 368.906 1220.14 368.906C1223.53 368.906 1226.78 369.297 1229.91 370.078C1242.67 373.464 1249.05 381.667 1249.05 394.688C1249.05 398.333 1248.27 401.849 1246.7 405.234C1242.28 415.13 1234.85 420.078 1224.44 420.078C1221.31 420.078 1218.45 419.688 1215.84 418.906C1210.38 416.823 1205.3 411.615 1200.61 403.281C1197.22 397.292 1194.1 394.297 1191.23 394.297C1189.67 394.297 1187.98 394.688 1186.16 395.469C1174.7 401.458 1168.06 418.125 1166.23 445.469V529.844H1195.14ZM1289.41 432.188C1289.41 450.156 1290.32 462.656 1292.14 469.688C1295.27 481.667 1303.21 487.656 1315.97 487.656C1323.78 487.656 1329.9 485.443 1334.33 481.016C1340.58 473.984 1343.7 457.318 1343.7 431.016C1343.7 413.828 1342.79 401.589 1340.97 394.297C1337.58 382.318 1329.38 376.328 1316.36 376.328C1308.29 376.328 1302.17 378.672 1298 383.359C1292.27 390.13 1289.41 406.406 1289.41 432.188ZM1317.92 366.172C1336.15 366.172 1351.52 370.078 1364.02 377.891C1365.06 375.026 1366.23 372.161 1367.53 369.297C1375.08 353.672 1385.63 345.859 1399.17 345.859C1404.12 345.859 1408.68 346.771 1412.84 348.594C1421.96 352.5 1426.52 359.141 1426.52 368.516C1426.52 369.818 1426.39 371.12 1426.12 372.422C1424.3 379.714 1419.48 383.359 1411.67 383.359C1408.29 383.359 1404.64 381.797 1400.73 378.672C1395.79 374.245 1391.62 372.031 1388.23 372.031C1381.98 372.292 1376.52 376.068 1371.83 383.359C1385.89 395.599 1393.05 411.224 1393.31 430.234C1393.31 444.297 1389.15 457.057 1380.81 468.516C1366.23 488.047 1344.61 497.812 1315.97 497.812L1274.17 497.422C1273.13 497.422 1272.09 497.552 1271.05 497.812C1264.54 498.594 1261.28 501.979 1261.28 507.969C1261.28 508.75 1261.41 509.531 1261.67 510.312C1262.97 516.042 1267.01 519.036 1273.78 519.297L1354.64 520.859C1358.29 520.859 1361.8 521.12 1365.19 521.641C1393.83 525.286 1408.16 540.26 1408.16 566.562C1408.16 573.333 1406.2 579.844 1402.3 586.094C1389.8 606.146 1362.19 616.172 1319.48 616.172C1301.78 616.172 1286.67 613.828 1274.17 609.141C1255.68 602.109 1246.44 591.562 1246.44 577.5C1246.44 569.688 1249.82 561.745 1256.59 553.672C1247.22 545.859 1242.4 535.703 1242.14 523.203C1242.14 517.995 1243.18 512.786 1245.27 507.578C1251.26 493.776 1261.93 487.005 1277.3 487.266H1277.69C1274.04 485.182 1270.53 482.839 1267.14 480.234C1248.91 466.172 1239.8 449.766 1239.8 431.016C1239.8 417.734 1243.7 405.755 1251.52 395.078C1265.58 375.807 1287.71 366.172 1317.92 366.172ZM1319.48 605.625C1331.72 605.625 1342.92 604.583 1353.08 602.5C1377.3 597.812 1389.41 589.349 1389.41 577.109C1389.41 574.505 1388.89 572.292 1387.84 570.469C1385.24 565.781 1376.39 563.438 1361.28 563.438L1282.38 562.656C1276.65 562.656 1271.18 561.615 1265.97 559.531C1262.06 565 1260.11 570.469 1260.11 575.938C1260.11 578.802 1260.76 581.667 1262.06 584.531C1268.57 598.594 1287.71 605.625 1319.48 605.625ZM1457.89 455.234C1457.89 479.714 1459.45 497.552 1462.58 508.75C1467.27 525.417 1477.68 533.75 1493.83 533.75C1502.94 533.75 1510.36 531.016 1516.09 525.547C1525.99 515.651 1530.94 491.693 1530.94 453.672C1530.94 429.974 1529.38 412.656 1526.25 401.719C1521.56 384.792 1510.89 376.328 1494.22 376.328C1484.32 376.328 1476.64 379.323 1471.17 385.312C1462.32 395.469 1457.89 418.776 1457.89 455.234ZM1496.17 366.172C1518.57 366.172 1537.71 372.292 1553.59 384.531C1574.17 400.938 1584.45 423.724 1584.45 452.891C1584.45 474.766 1577.94 494.036 1564.92 510.703C1547.47 532.839 1523.39 543.906 1492.66 543.906C1470.26 543.906 1450.99 537.135 1434.84 523.594C1414.53 506.406 1404.38 483.099 1404.38 453.672C1404.38 432.839 1410.36 414.609 1422.34 398.984C1439.53 377.109 1464.14 366.172 1496.17 366.172Z" fill="white"/>
</svg>
